<svg viewBox="0 0 512 512.00104" xmlns="http://www.w3.org/2000/svg"><path d="m320.511719 278.515625c-18.742188-18.746094-18.742188-49.136719 0-67.878906l17.503906-17.503907c66.632813-66.632812 22.726563-181.460937-71.421875-185.410156-1.378906-.058594-2.757812-.105468-4.140625-.140625-143.613281-3.660156-259.425781 112.941407-254.820313 256.527344 4.40625 137.417969 120.382813 246.660156 260.3125 240.109375 127.175782-5.953125 229.773438-108.136719 236.226563-235.289062.042969-.867188.085937-1.734376.121094-2.605469 1.558593-38.460938-44.832031-58.878907-72.054688-31.65625l-43.847656 43.847656c-18.742187 18.742187-49.132813 18.742187-67.878906 0zm0 0" fill="#fa9f6a"/><path d="m37.632812 264.109375c-4.371093-136.242187 99.679688-248.175781 233.023438-256.140625-1.347656-.105469-2.699219-.1875-4.0625-.246094-1.378906-.058594-2.757812-.105468-4.140625-.140625-143.613281-3.660156-259.425781 112.941407-254.820313 256.527344 4.40625 137.417969 120.382813 246.660156 260.3125 240.109375 1.011719-.046875 2.019532-.117188 3.027344-.175781-127.570312-7.613281-229.21875-111.453125-233.339844-239.933594zm0 0" fill="#eb8f59"/><path d="m296.46875 104.265625c0 28.523437-23.125 51.648437-51.648438 51.648437-28.523437 0-51.648437-23.125-51.648437-51.648437s23.125-51.648437 51.648437-51.648437c28.523438 0 51.648438 23.125 51.648438 51.648437zm0 0" fill="#fd6f71"/><path d="m223.171875 104.265625c0-23.308594 15.441406-43 36.648437-49.429687-4.746093-1.4375-9.78125-2.21875-15-2.21875-28.523437 0-51.648437 23.125-51.648437 51.648437s23.125 51.648437 51.648437 51.648437c5.21875 0 10.253907-.78125 15-2.21875-21.207031-6.429687-36.648437-26.125-36.648437-49.429687zm0 0" fill="#e36465"/><path d="m169.195312 204.789062c0 28.523438-23.125 51.648438-51.648437 51.648438s-51.648437-23.125-51.648437-51.648438c0-28.523437 23.125-51.648437 51.648437-51.648437s51.648437 23.125 51.648437 51.648437zm0 0" fill="#efedee"/><path d="m95.898438 204.789062c0-23.308593 15.441406-43 36.648437-49.429687-4.746094-1.4375-9.78125-2.21875-15-2.21875-28.523437 0-51.648437 23.125-51.648437 51.648437 0 28.523438 23.125 51.648438 51.648437 51.648438 5.21875 0 10.253906-.78125 15-2.222656-21.207031-6.425782-36.648437-26.121094-36.648437-49.425782zm0 0" fill="#d9d7d8"/><path d="m191.84375 358.542969c0 28.527343-23.121094 51.648437-51.648438 51.648437-28.523437 0-51.644531-23.121094-51.644531-51.648437 0-28.523438 23.121094-51.644531 51.644531-51.644531 28.527344 0 51.648438 23.121093 51.648438 51.644531zm0 0" fill="#fadc60"/><path d="m118.546875 358.542969c0-23.304688 15.441406-43 36.648437-49.425781-4.746093-1.4375-9.78125-2.21875-15-2.21875-28.523437 0-51.648437 23.121093-51.648437 51.644531 0 28.527343 23.125 51.648437 51.648437 51.648437 5.21875 0 10.253907-.78125 15-2.21875-21.207031-6.429687-36.648437-26.121094-36.648437-49.429687zm0 0" fill="#e6cb59"/><path d="m348.117188 404.539062c0 28.523438-23.125 51.648438-51.648438 51.648438s-51.648438-23.125-51.648438-51.648438c0-28.523437 23.125-51.648437 51.648438-51.648437s51.648438 23.125 51.648438 51.648437zm0 0" fill="#58b78c"/><path d="m274.820312 404.539062c0-23.304687 15.441407-43 36.648438-49.425781-4.75-1.441406-9.78125-2.222656-15-2.222656-28.527344 0-51.648438 23.125-51.648438 51.648437 0 28.523438 23.125 51.648438 51.648438 51.648438 5.21875 0 10.25-.78125 15-2.21875-21.207031-6.429688-36.648438-26.125-36.648438-49.429688zm0 0" fill="#46926f"/><path d="m482.015625 218.972656c-19.167969-8.398437-40.273437-4.417968-55.082031 10.390625l-43.847656 43.847657c-12.652344 12.65625-31.777344 15.539062-47.578126 7.175781-3.660156-1.941407-8.199218-.542969-10.136718 3.117187s-.542969 8.199219 3.117187 10.136719c21.660157 11.46875 47.863281 7.519531 65.207031-9.820313l43.847657-43.847656c12.355469-12.359375 27.964843-11.855468 38.453125-7.257812 10.519531 4.609375 21.511718 15.78125 20.800781 33.308594-.035156.84375-.074219 1.6875-.117187 2.53125-6.304688 124.261718-104.792969 222.355468-229.085938 228.171874-3.894531.183594-7.773438.273438-11.644531.273438-60.90625 0-118.574219-22.476562-163.46875-63.960938-47.800781-44.175781-75.269531-104.253906-77.351563-169.167968-2.007812-62.542969 19.617188-122.4375 60.886719-168.652344 2.761719-3.089844 2.492187-7.832031-.597656-10.589844-3.089844-2.761718-7.832031-2.488281-10.589844.597656-43.847656 49.101563-66.820313 112.714844-64.691406 179.125 1.113281 34.75 9.078125 68.261719 23.675781 99.601563 14.132812 30.347656 33.8125 57.296875 58.488281 80.101563 47.691407 44.074218 108.9375 67.949218 173.632813 67.945312 4.105468 0 8.230468-.09375 12.363281-.289062 63.371094-2.964844 123.152344-29.378907 168.324219-74.371094 45.175781-44.996094 71.824218-104.667969 75.042968-168.027344.042969-.894531.085938-1.789062.121094-2.679688.847656-20.980468-10.558594-39.242187-29.769531-47.660156zm0 0"/><path d="m95.21875 76.015625c45.765625-40.871094 105.089844-62.542969 167.046875-60.933594 1.339844.03125 2.679687.078125 4.015625.132813 40.265625 1.691406 74.417969 26.179687 89.125 63.90625 14.882812 38.171875 6.1875 79.828125-22.695312 108.707031l-17.5 17.503906c-16.878907 16.882813-21.089844 42.578125-10.472657 63.941407 1.3125 2.636718 3.964844 4.164062 6.722657 4.164062 1.121093 0 2.261718-.253906 3.332031-.785156 3.710937-1.84375 5.222656-6.34375 3.378906-10.054688-7.746094-15.589844-4.671875-34.339844 7.644531-46.660156l17.503906-17.5c33.152344-33.15625 43.140626-80.964844 26.0625-124.765625-16.90625-43.359375-56.171874-71.5-102.476562-73.441406-1.417969-.058594-2.839844-.105469-4.261719-.1445315-65.804687-1.6796875-128.792969 21.3164065-177.417969 64.7421875-3.089843 2.757813-3.355468 7.5-.597656 10.589844 2.757813 3.089843 7.5 3.359375 10.589844.597656zm0 0"/><path d="m244.820312 163.414062c32.613282 0 59.148438-26.535156 59.148438-59.148437s-26.535156-59.148437-59.148438-59.148437c-32.613281 0-59.148437 26.535156-59.148437 59.148437s26.535156 59.148437 59.148437 59.148437zm0-103.296874c24.34375 0 44.148438 19.804687 44.148438 44.148437s-19.804688 44.148437-44.148438 44.148437-44.148437-19.804687-44.148437-44.148437 19.804687-44.148437 44.148437-44.148437zm0 0"/><path d="m176.695312 204.789062c0-32.613281-26.535156-59.148437-59.148437-59.148437s-59.148437 26.535156-59.148437 59.148437c0 32.613282 26.535156 59.148438 59.148437 59.148438s59.148437-26.535156 59.148437-59.148438zm-103.296874 0c0-24.34375 19.804687-44.148437 44.148437-44.148437s44.148437 19.804687 44.148437 44.148437-19.804687 44.148438-44.148437 44.148438-44.148437-19.804688-44.148437-44.148438zm0 0"/><path d="m140.195312 417.691406c32.617188 0 59.148438-26.53125 59.148438-59.148437 0-32.613281-26.53125-59.144531-59.148438-59.144531-32.613281 0-59.144531 26.53125-59.144531 59.144531 0 32.617187 26.53125 59.148437 59.144531 59.148437zm0-103.292968c24.34375 0 44.148438 19.804687 44.148438 44.144531 0 24.34375-19.804688 44.148437-44.148438 44.148437-24.339843 0-44.144531-19.804687-44.144531-44.148437 0-24.339844 19.800781-44.144531 44.144531-44.144531zm0 0"/><path d="m296.46875 463.6875c32.613281 0 59.148438-26.535156 59.148438-59.148438 0-32.613281-26.535157-59.148437-59.148438-59.148437s-59.148438 26.535156-59.148438 59.148437c0 32.613282 26.535157 59.148438 59.148438 59.148438zm0-103.296875c24.34375 0 44.148438 19.804687 44.148438 44.148437s-19.804688 44.148438-44.148438 44.148438-44.148438-19.804688-44.148438-44.148438 19.804688-44.148437 44.148438-44.148437zm0 0"/></svg>